<svg width="142" height="134" fill="none" xmlns="http://www.w3.org/2000/svg"><path opacity=".5" d="M135.531 23.22c-9.6-11.6-34.333-8.834-45.5-6-10 0-15.5-4.001-20.5-7.501s-39.5-20-60.5 0 0 40.5 9 46.5c7.2 4.8 6 9.667 4.5 11.5-2.333 3.5-6.5 12.3-4.5 19.5 2.5 9 24.5 11.5 28 10s37.5-4 55.5-1.5 30.5-23 34-30 12-28 0-42.5z" fill="#E8DDF1"/><g filter="url(#filter0_d)"><path d="M73 89.72l-37-28.5 20.5-15.5h33l18.5 15.5-35 28.5z" fill="#9B51E0"/></g><g filter="url(#filter1_d)"><rect x="44" y="30.219" width="57" height="58" rx="2" fill="#fff"/></g><g filter="url(#filter2_d)"><path d="M36 61.22l36 27 36-27v41.999H36v-42z" fill="#D07AF0"/></g><path d="M67.8 79.37L36 103.218h72l-31.8-23.85a7 7 0 00-8.4 0z" fill="#BB6BD9"/><path fill="#F5F5F5" d="M51 43.219h30v3H51zm0 8h43v3H51zm0 7h43v3H51zm0 7h43v3H51z"/><defs><filter id="filter0_d" x="6" y="15.719" width="132" height="104" filterUnits="userSpaceOnUse" color-interpolation-filters="sRGB"><feFlood flood-opacity="0" result="BackgroundImageFix"/><feColorMatrix in="SourceAlpha" values="0 0 0 0 0 0 0 0 0 0 0 0 0 0 0 0 0 0 127 0"/><feOffset/><feGaussianBlur stdDeviation="15"/><feColorMatrix values="0 0 0 0 0.227451 0 0 0 0 0.160784 0 0 0 0 0.278431 0 0 0 0.14 0"/><feBlend in2="BackgroundImageFix" result="effect1_dropShadow"/><feBlend in="SourceGraphic" in2="effect1_dropShadow" result="shape"/></filter><filter id="filter1_d" x="14" y=".219" width="117" height="118" filterUnits="userSpaceOnUse" color-interpolation-filters="sRGB"><feFlood flood-opacity="0" result="BackgroundImageFix"/><feColorMatrix in="SourceAlpha" values="0 0 0 0 0 0 0 0 0 0 0 0 0 0 0 0 0 0 127 0"/><feOffset/><feGaussianBlur stdDeviation="15"/><feColorMatrix values="0 0 0 0 0.227451 0 0 0 0 0.160784 0 0 0 0 0.278431 0 0 0 0.14 0"/><feBlend in2="BackgroundImageFix" result="effect1_dropShadow"/><feBlend in="SourceGraphic" in2="effect1_dropShadow" result="shape"/></filter><filter id="filter2_d" x="6" y="31.219" width="132" height="102" filterUnits="userSpaceOnUse" color-interpolation-filters="sRGB"><feFlood flood-opacity="0" result="BackgroundImageFix"/><feColorMatrix in="SourceAlpha" values="0 0 0 0 0 0 0 0 0 0 0 0 0 0 0 0 0 0 127 0"/><feOffset/><feGaussianBlur stdDeviation="15"/><feColorMatrix values="0 0 0 0 0.227451 0 0 0 0 0.160784 0 0 0 0 0.278431 0 0 0 0.14 0"/><feBlend in2="BackgroundImageFix" result="effect1_dropShadow"/><feBlend in="SourceGraphic" in2="effect1_dropShadow" result="shape"/></filter></defs></svg>